<?xml version="1.0" encoding="utf-8"?>
<!-- Generator: Adobe Illustrator 17.0.0, SVG Export Plug-In . SVG Version: 6.00 Build 0)  -->
<!DOCTYPE svg PUBLIC "-//W3C//DTD SVG 1.1//EN" "http://www.w3.org/Graphics/SVG/1.1/DTD/svg11.dtd">
<svg version="1.1" id="Calque_1" xmlns="http://www.w3.org/2000/svg" xmlns:xlink="http://www.w3.org/1999/xlink" x="0px" y="0px"
	 width="170px" height="43px" viewBox="0 0 170 43" style="enable-background:new 0 0 170 43;" xml:space="preserve">
<g>
	<defs>
		<rect id="SVGID_1_" x="102.68" y="-5.36" width="56.72" height="56.72"/>
	</defs>
	<clipPath id="SVGID_2_">
		<use xlink:href="#SVGID_1_"  style="overflow:visible;"/>
	</clipPath>
	<path style="clip-path:url(#SVGID_2_);fill:#C8174B;" d="M120.24,31.53l-0.05-0.25c1.58-0.7,2.4-2.07,3.2-3.39
		c0.08-0.13,0.15-0.25,0.23-0.38c0.31-0.51,0.62-1.02,0.93-1.53c0.7-1.16,1.43-2.37,2.18-3.53c0.87-1.35,2.21-2.22,3.88-2.5
		c1.11-0.19,2.26-0.24,3.38-0.28l0.47-0.02c0.38-0.02,0.8-0.02,1.29-0.02c0.34,0,0.68,0,1.02,0.01c0.29,0,0.57,0.01,0.86,0.01
		c-0.07-0.05-0.14-0.1-0.21-0.15c-1.05-0.7-1.86-1.45-2.46-2.3c-0.55-0.77-0.83-1.65-0.83-2.62c0-0.35,0-0.69,0.01-1.04
		c0.01-0.95,0.02-1.92-0.02-2.88c-0.04-1.26-0.35-2.25-0.95-3.01c-0.19-0.24-0.42-0.45-0.64-0.66c-0.07-0.06-0.13-0.12-0.2-0.18
		l0.04,0.36c0.04,0.36,0.08,0.72,0.12,1.08c0.15,1.49,0.29,3.09,0.1,4.72c-0.22,1.9,0.23,3.54,1.34,4.87
		c0.19,0.23,0.43,0.43,0.66,0.62c0.11,0.09,0.22,0.18,0.33,0.28l0.3,0.27l-0.4-0.04c-0.17-0.02-0.35-0.04-0.52-0.06
		c-0.38-0.04-0.77-0.09-1.16-0.12c-0.33-0.03-0.67-0.04-1-0.04c-1.5,0-2.96,0.27-4.34,0.8c-0.71,0.27-1.3,0.75-1.75,1.4
		c-1.39,2.03-2.78,4.1-4.12,6.11l-0.88,1.32c-0.16,0.23-0.31,0.47-0.45,0.71c-0.17,0.27-0.34,0.55-0.52,0.81
		c-0.69,1.01-1.6,1.52-2.7,1.52c-0.32,0-0.64,0-0.96,0c-1.62,0-3.27-0.01-4.87-0.01c-0.73,0-1.46-0.01-2.19-0.01
		c-0.06,0-0.12-0.02-0.19-0.06l-0.29-0.16l0.32-0.08c0.54-0.14,0.81-0.55,1.1-0.99l0.67-1.02c2.1-3.19,4.28-6.48,6.44-9.71
		c0.91-1.36,2.05-2.11,3.4-2.24c0.28-0.03,0.57-0.04,0.88-0.04c0.67,0,1.35,0.06,1.93,0.12c1.25,0.13,2.51,0.29,3.73,0.44
		c0.77,0.1,1.57,0.19,2.35,0.29c0.11,0.01,0.22,0.02,0.36,0.02c0.11,0,0.22,0,0.32-0.01c0.07,0,0.13,0,0.2-0.01
		c-0.92-0.95-1.39-2.14-1.46-3.74c-0.14-3.16-0.3-5.75-0.49-8.14c-0.08-0.97-0.5-1.9-1.28-2.86l0.16-0.2
		c0.08,0.04,0.16,0.08,0.22,0.11c0.12,0.06,0.22,0.11,0.32,0.16c0.69,0.37,1.37,0.75,2.06,1.12c1.47,0.8,2.99,1.63,4.5,2.43
		c1.57,0.84,2.44,2.19,2.59,4.01c0.07,0.83,0.08,1.68,0.1,2.5c0.01,0.52,0.02,1.06,0.04,1.58c0.02,0.43,0.08,0.89,0.18,1.42
		c0.34,1.7,1.21,2.53,2.91,2.78c0.79,0.11,1.62,0.18,2.45,0.19c2.1,0.03,3.79,0.97,5.14,2.87c1.35,1.89,2.34,4.12,3.1,7
		c0.19,0.73,0.31,1.48,0.4,2.13l-0.25,0.06c-0.11-0.33-0.22-0.66-0.33-1c-0.24-0.72-0.49-1.47-0.76-2.19
		c-0.63-1.63-1.55-3.71-3.13-5.39c-0.7-0.74-1.45-1.24-2.31-1.53c-0.38-0.13-0.75-0.19-1.11-0.19c-0.76,0-1.46,0.3-2.1,0.9
		c-0.67,0.63-1.21,1.42-1.77,2.57c-0.76,1.56-1.71,3.14-3,4.95c-0.78,1.1-1.84,1.64-3.23,1.64c-0.13,0-0.26,0-0.39-0.01
		c-0.35-0.02-0.69-0.12-1.02-0.21c-0.15-0.04-0.3-0.08-0.45-0.12l-0.1-0.02l-0.01-0.32l0.08-0.03c0.84-0.34,1.3-1.07,1.71-1.72
		c1.45-2.31,3.02-4.79,4.62-7.26c0.18-0.28,0.44-0.49,0.69-0.7c0.1-0.09,0.21-0.18,0.31-0.27c0.04-0.04,0.08-0.07,0.12-0.1
		c-0.22-0.06-0.45-0.09-0.68-0.09c-0.79,0-1.51,0.36-1.97,0.99c-0.75,1.03-1.48,2.11-2.19,3.15c-0.28,0.41-0.56,0.82-0.84,1.24
		c-0.31,0.45-0.61,0.9-0.92,1.35c-0.6,0.89-1.22,1.81-1.86,2.7c-0.82,1.15-2.04,1.71-3.73,1.72c-1.43,0-2.88,0.04-4.28,0.07
		c-0.63,0.01-1.25,0.03-1.88,0.04c-0.05,0-0.1,0-0.16,0L120.24,31.53z M133.39,20.68c-1.02,0-1.77,0.38-2.29,1.16
		c-0.49,0.75-0.98,1.52-1.44,2.27l-0.05,0.08c-0.37,0.58-0.72,1.19-1.07,1.78c-0.83,1.41-1.68,2.87-2.77,4.2
		c0.39-0.02,0.72-0.19,1-0.5c0.27-0.3,0.5-0.66,0.72-1.01l0.04-0.06c0.64-1.02,1.29-2.04,1.93-3.06c0.59-0.94,1.18-1.88,1.78-2.82
		c0.47-0.75,1.1-1.3,1.86-1.64c0.21-0.09,0.41-0.21,0.63-0.33c0.03-0.02,0.06-0.03,0.08-0.05
		C133.66,20.68,133.52,20.68,133.39,20.68 M124.22,18.42c-1.1,0-1.97,0.51-2.65,1.57c-1.61,2.48-3.3,5.07-5.18,7.92
		c-0.11,0.16-0.21,0.32-0.31,0.49c-0.32,0.52-0.65,1.05-1.11,1.49c0.04-0.01,0.07-0.02,0.11-0.04c0.92-0.34,1.67-0.97,2.31-1.92
		c0.44-0.65,0.87-1.29,1.31-1.94c1.02-1.51,2.08-3.07,3.09-4.61c0.79-1.2,1.82-2.11,3.15-2.8c0.02-0.01,0.04-0.03,0.07-0.04
		c-0.02-0.01-0.05-0.01-0.07-0.02c-0.21-0.05-0.39-0.09-0.56-0.09C124.33,18.42,124.27,18.42,124.22,18.42"/>
	<path style="clip-path:url(#SVGID_2_);fill:#79122D;" d="M131.67,30.54c0.85-0.34,1.31-1.05,1.77-1.77
		c1.53-2.43,3.06-4.85,4.62-7.26c0.24-0.37,0.65-0.64,0.98-0.95c0.09-0.09,0.2-0.16,0.31-0.25c-1.11-0.4-2.34-0.09-3.04,0.87
		c-1.05,1.44-2.03,2.93-3.03,4.39c-0.92,1.35-1.82,2.71-2.77,4.05c-0.88,1.24-2.15,1.66-3.63,1.66c-2.05,0.01-4.11,0.07-6.16,0.11
		c-0.14,0-0.28,0-0.47,0c1.77-0.78,2.59-2.34,3.49-3.82c1.03-1.69,2.03-3.39,3.1-5.05c0.88-1.37,2.21-2.17,3.79-2.45
		c1.26-0.22,2.55-0.24,3.83-0.3c1.11-0.05,2.22-0.01,3.33-0.01c0.01-0.05,0.03-0.09,0.04-0.14c-0.11-0.08-0.23-0.17-0.34-0.25
		c-0.93-0.62-1.77-1.35-2.43-2.26c-0.54-0.76-0.8-1.61-0.8-2.54c0-1.31,0.03-2.62-0.01-3.93c-0.04-1.11-0.28-2.19-0.98-3.09
		c-0.28-0.36-0.65-0.65-0.97-0.98c-0.04,0.03-0.08,0.05-0.12,0.08c0.06,0.53,0.12,1.05,0.18,1.58c0.16,1.56,0.28,3.11,0.1,4.69
		c-0.21,1.8,0.16,3.53,1.37,4.97c0.29,0.35,0.67,0.61,1,0.91c-0.55-0.06-1.12-0.13-1.69-0.17c-1.85-0.14-3.65,0.1-5.39,0.77
		c-0.77,0.3-1.37,0.8-1.81,1.45c-1.69,2.46-3.34,4.95-5,7.43c-0.33,0.5-0.63,1.02-0.97,1.52c-0.62,0.91-1.46,1.46-2.59,1.46
		c-2.67,0-5.34-0.01-8.02-0.02c-0.04,0-0.07-0.01-0.13-0.04c0.62-0.16,0.91-0.65,1.23-1.13c2.34-3.55,4.68-7.1,7.05-10.64
		c0.79-1.17,1.85-2.04,3.3-2.18c0.92-0.09,1.86-0.01,2.78,0.08c2.03,0.21,4.05,0.49,6.08,0.72c0.34,0.04,0.69,0.01,1.02,0.01
		c0.01-0.13,0.02-0.16,0.01-0.18c-1.02-1.02-1.4-2.28-1.47-3.7c-0.12-2.72-0.27-5.44-0.49-8.15c-0.09-1.05-0.55-2.01-1.31-2.93
		c0.24,0.12,0.39,0.19,0.54,0.27c2.19,1.19,4.36,2.39,6.56,3.56c1.57,0.84,2.38,2.18,2.52,3.91c0.11,1.35,0.08,2.72,0.14,4.08
		c0.02,0.48,0.09,0.96,0.19,1.44c0.35,1.75,1.25,2.63,3.02,2.88c0.81,0.12,1.64,0.18,2.46,0.19c2.2,0.03,3.8,1.09,5.04,2.81
		c1.5,2.11,2.43,4.48,3.08,6.96c0.18,0.69,0.3,1.4,0.4,2.12c-0.36-1.06-0.7-2.14-1.1-3.19c-0.76-1.98-1.69-3.87-3.16-5.43
		c-0.66-0.71-1.44-1.25-2.37-1.57c-1.26-0.43-2.37-0.17-3.34,0.74c-0.79,0.74-1.33,1.65-1.79,2.61c-0.84,1.74-1.87,3.36-2.98,4.93
		c-0.88,1.23-2.07,1.67-3.51,1.57c-0.49-0.03-0.96-0.21-1.44-0.32C131.67,30.63,131.67,30.58,131.67,30.54 M114.52,30.1
		c0.05,0,0.1,0.01,0.15,0c0.15-0.04,0.31-0.07,0.45-0.13c1.02-0.38,1.78-1.08,2.38-1.97c1.47-2.18,2.96-4.35,4.41-6.55
		c0.79-1.21,1.83-2.1,3.1-2.76c0.08-0.04,0.16-0.11,0.33-0.23c-0.39-0.07-0.67-0.16-0.95-0.17c-1.3-0.06-2.24,0.55-2.93,1.62
		c-1.72,2.65-3.44,5.29-5.18,7.92C115.76,28.62,115.32,29.49,114.52,30.1 M125.5,30.28c0.59,0.05,1.03-0.16,1.38-0.54
		c0.3-0.33,0.53-0.71,0.77-1.08c1.24-1.96,2.47-3.92,3.7-5.88c0.44-0.7,1.03-1.24,1.8-1.59c0.31-0.14,0.61-0.32,0.98-0.52
		c-0.14-0.06-0.19-0.09-0.25-0.1c-1.17-0.12-2.19,0.15-2.88,1.19c-0.51,0.77-1,1.56-1.5,2.35C128.21,26.18,127.12,28.36,125.5,30.28
		"/>
	<path style="clip-path:url(#SVGID_2_);fill:#C8174B;" d="M134.19,29.69c0.87-1.03,1.51-2.2,2.18-3.35
		c0.71-1.24,1.41-2.48,2.26-3.63c0.69-0.93,1.4-1.83,2.46-2.38c0.84-0.43,1.72-0.35,2.58-0.17c2.12,0.45,3.7,1.7,4.89,3.48
		c0.1,0.15,0.2,0.31,0.03,0.53c-0.35-0.58-0.71-1.12-1.17-1.59c-1.42-1.45-3.13-2.21-5.16-2.19c-0.7,0.01-1.24,0.38-1.76,0.8
		c-0.93,0.75-1.61,1.72-2.24,2.72c-0.93,1.47-1.83,2.96-2.78,4.43C135.14,28.85,134.72,29.33,134.19,29.69"/>
	<path style="clip-path:url(#SVGID_2_);fill:#C8174B;" d="M112.9,29.49c-0.07-0.19,0.01-0.34,0.07-0.49
		c1.26-3.05,2.84-5.92,4.98-8.45c0.68-0.81,1.45-1.55,2.36-2.11c0.59-0.37,1.26-0.58,1.71-0.54c-2,0.72-3.33,2.19-4.53,3.8
		c-1.62,2.16-2.9,4.51-4.11,6.91C113.24,28.91,113.07,29.19,112.9,29.49"/>
	<path style="clip-path:url(#SVGID_2_);fill:#C8174B;" d="M118.57,29.79c0.78-2.18,5.77-9.99,7.97-10.73
		c-1.74,1.56-3.03,3.35-4.3,5.17C120.97,26.05,119.85,27.97,118.57,29.79"/>
	<path style="clip-path:url(#SVGID_2_);fill:#C8174B;" d="M130.37,5.95c0.46,0.26,0.58,0.63,0.72,0.95c0.61,1.37,0.76,2.82,0.64,4.3
		c-0.1,1.25-0.25,2.5-0.32,3.75c-0.04,0.84,0.16,1.64,0.72,2.31c0.05,0.06,0.11,0.12,0.09,0.23c-0.14,0.05-0.22-0.05-0.31-0.15
		c-0.61-0.66-0.85-1.46-0.84-2.34c0.02-1.32,0.23-2.63,0.3-3.95c0.08-1.62-0.06-3.22-0.83-4.7C130.51,6.25,130.47,6.14,130.37,5.95"
		/>
	<path style="clip-path:url(#SVGID_2_);fill:#C8174B;" d="M128.49,29.98c0.42-0.59,0.83-1.19,1.17-1.83
		c0.86-1.58,1.88-3.05,2.96-4.49c0.72-0.95,1.49-1.86,2.49-2.53c0.09-0.06,0.16-0.14,0.33-0.13c-0.19,0.21-0.34,0.4-0.52,0.57
		c-1.67,1.58-2.89,3.5-4.14,5.41c-0.53,0.81-1.05,1.63-1.6,2.43C129.03,29.66,128.8,29.88,128.49,29.98"/>
</g>
<g>
	<path style="fill:#81655A;" d="M93.87,40.69c0,0.06-0.03,0.09-0.09,0.09c-0.05,0-0.11,0-0.21-0.01c-0.09-0.01-0.16-0.01-0.21-0.01
		c-0.04,0-0.11,0-0.21,0.01c-0.09,0.01-0.16,0.01-0.21,0.01c-0.06,0-0.09-0.04-0.09-0.13c0-0.32,0.01-0.8,0.03-1.44
		c0.02-0.64,0.03-1.12,0.03-1.44c0-0.05-0.01-0.07-0.03-0.07c-0.02,0-0.04,0.01-0.05,0.04c-0.13,0.28-0.43,1.01-0.91,2.2
		c-0.08,0.23-0.19,0.52-0.34,0.86c-0.02,0.03-0.11,0.05-0.27,0.05c-0.24,0-0.37-0.02-0.39-0.06c-0.09-0.21-0.21-0.49-0.37-0.86
		c-0.21-0.5-0.53-1.24-0.96-2.23c-0.01-0.02-0.02-0.04-0.05-0.05c-0.02,0.02-0.03,0.04-0.03,0.08c0,0.33,0.01,0.81,0.02,1.46
		c0.01,0.65,0.02,1.14,0.02,1.46c0,0.08-0.03,0.13-0.09,0.13c-0.04,0-0.11,0-0.2-0.01c-0.09-0.01-0.15-0.01-0.2-0.01
		c-0.04,0-0.11,0-0.2,0.01c-0.09,0.01-0.16,0.01-0.2,0.01c-0.06,0-0.09-0.02-0.09-0.07c0-0.28,0.01-0.7,0.04-1.26
		c0.03-0.56,0.04-0.98,0.04-1.26c0-0.29-0.01-0.73-0.04-1.31c-0.03-0.58-0.04-1.02-0.04-1.31c0-0.05,0.03-0.08,0.09-0.08
		c0.34-0.05,0.6-0.07,0.78-0.07c0.03,0,0.06,0.05,0.11,0.16c0.61,1.34,1.14,2.54,1.57,3.6c0.1,0.25,0.17,0.37,0.19,0.37
		c0.03,0,0.08-0.1,0.16-0.3c0.34-0.82,0.82-2.03,1.43-3.64c0.04-0.1,0.08-0.15,0.13-0.15c0.09,0,0.22,0,0.39,0.01
		c0.17,0.01,0.3,0.02,0.39,0.02c0.06,0,0.09,0.03,0.09,0.09c0,0.29-0.01,0.73-0.03,1.31c-0.02,0.58-0.03,1.02-0.03,1.31
		c0,0.28,0.01,0.69,0.03,1.25C93.86,40,93.87,40.41,93.87,40.69z"/>
	<path style="fill:#81655A;" d="M98.87,38.94c0,0.53-0.17,0.98-0.52,1.35c-0.35,0.39-0.79,0.58-1.31,0.58
		c-0.53,0-0.96-0.19-1.32-0.58c-0.35-0.37-0.52-0.82-0.52-1.35s0.17-0.98,0.52-1.35c0.36-0.38,0.79-0.57,1.32-0.57
		c0.52,0,0.96,0.19,1.31,0.57C98.7,37.97,98.87,38.41,98.87,38.94z M98.07,38.95c0-0.31-0.09-0.57-0.28-0.79
		c-0.2-0.23-0.45-0.34-0.75-0.34c-0.3,0-0.55,0.11-0.75,0.34C96.1,38.37,96,38.64,96,38.95c0,0.3,0.1,0.57,0.29,0.79
		c0.2,0.24,0.45,0.35,0.75,0.35c0.3,0,0.55-0.12,0.75-0.35C97.98,39.51,98.07,39.25,98.07,38.95z"/>
	<path style="fill:#81655A;" d="M103.49,40.65c0,0.09-0.03,0.14-0.08,0.14c-0.08,0-0.2,0-0.36,0c-0.16,0-0.28,0-0.36,0
		c-0.06,0-0.09-0.04-0.09-0.13c0-0.12,0-0.3,0.01-0.55s0.01-0.43,0.01-0.55c0-0.12,0-0.29-0.01-0.53c-0.01-0.24-0.01-0.41-0.01-0.53
		c0-0.46-0.21-0.68-0.64-0.68c-0.14,0-0.32,0.07-0.54,0.21c-0.24,0.15-0.36,0.29-0.36,0.41v2.25c0,0.07-0.03,0.11-0.08,0.11
		c-0.08,0-0.2,0-0.35,0c-0.16,0-0.27,0-0.35,0c-0.06,0-0.09-0.03-0.09-0.1v-1.83c0-0.3-0.02-0.93-0.05-1.9
		c0-0.3-0.03-0.74-0.06-1.33c0-0.03-0.01-0.05-0.01-0.06c0-0.04,0.02-0.07,0.05-0.08c0.04-0.01,0.19-0.02,0.43-0.02
		c0.05,0,0.13-0.01,0.24-0.03c0.11-0.02,0.18-0.03,0.23-0.03c0.03,0,0.05,0.02,0.05,0.07c0,0.24-0.01,0.59-0.03,1.07
		C101,37.02,101,37.37,101,37.61c0,0.06,0.01,0.09,0.03,0.09c0.13-0.11,0.29-0.24,0.5-0.39c0.25-0.15,0.51-0.23,0.78-0.23
		c0.47,0,0.8,0.14,0.98,0.42c0.13,0.21,0.19,0.54,0.19,0.98c0,0.08,0,0.2,0,0.36s-0.01,0.28-0.01,0.36c0,0.16,0,0.4,0.01,0.72
		C103.48,40.25,103.49,40.49,103.49,40.65z"/>
	<path style="fill:#81655A;" d="M108.67,37.36c0,0.01,0,0.03-0.01,0.07c-0.1,0.58-0.15,1.08-0.15,1.5c0,0.03,0.03,0.59,0.09,1.7
		l0,0.05c0,0.07-0.03,0.11-0.1,0.11s-0.17,0.01-0.31,0.02c-0.14,0.02-0.24,0.02-0.31,0.02c-0.05,0-0.08-0.09-0.11-0.26
		s-0.05-0.26-0.07-0.26c-0.01,0-0.08,0.05-0.2,0.15c-0.15,0.12-0.29,0.21-0.42,0.28c-0.2,0.1-0.4,0.15-0.6,0.15
		c-0.49,0-0.9-0.2-1.24-0.59c-0.32-0.37-0.48-0.81-0.48-1.31c0-0.56,0.16-1.02,0.48-1.39c0.34-0.38,0.78-0.57,1.33-0.57
		c0.39,0,0.72,0.13,1.01,0.4c0.04,0.05,0.11,0.12,0.2,0.22c0.01,0.01,0.02,0.01,0.02,0.01c0.01,0,0.04-0.08,0.06-0.24
		c0.03-0.16,0.06-0.24,0.11-0.24c0.07,0,0.2,0.02,0.38,0.06C108.57,37.28,108.67,37.32,108.67,37.36z M107.7,38.94
		c0-0.31-0.09-0.58-0.28-0.8c-0.19-0.24-0.44-0.36-0.75-0.36c-0.3,0-0.55,0.12-0.76,0.36c-0.19,0.23-0.29,0.5-0.29,0.8
		c0,0.31,0.1,0.57,0.29,0.79c0.2,0.24,0.45,0.35,0.76,0.35c0.3,0,0.54-0.12,0.74-0.36C107.61,39.5,107.7,39.24,107.7,38.94z"/>
	<path style="fill:#81655A;" d="M115.81,40.64c0,0.1-0.03,0.15-0.09,0.15c-0.04,0-0.09,0-0.17-0.01s-0.14-0.01-0.18-0.01
		c-0.04,0-0.11,0-0.19,0.01s-0.15,0.01-0.19,0.01c-0.05,0-0.08-0.06-0.08-0.18c0-0.12,0-0.29,0.01-0.52
		c0.01-0.23,0.01-0.4,0.01-0.52c0-0.64,0-0.99-0.01-1.07c-0.02-0.26-0.07-0.44-0.16-0.54c-0.1-0.11-0.27-0.16-0.53-0.16
		c-0.16,0-0.34,0.08-0.54,0.23c-0.21,0.16-0.31,0.32-0.32,0.47c-0.01,0.2-0.02,0.56-0.02,1.08c0,0.12,0,0.31,0.02,0.56
		c0.01,0.25,0.01,0.43,0.01,0.56c0,0.07-0.02,0.1-0.07,0.1c-0.04,0-0.11,0-0.2-0.01s-0.15-0.01-0.2-0.01c-0.04,0-0.1,0-0.18,0.01
		s-0.14,0.01-0.18,0.01c-0.05,0-0.08-0.04-0.08-0.11c0-0.12,0-0.3,0.01-0.55c0.01-0.24,0.01-0.43,0.01-0.55v-0.91
		c0-0.29-0.03-0.49-0.1-0.61c-0.1-0.17-0.28-0.26-0.55-0.26c-0.16,0-0.35,0.07-0.57,0.2c-0.24,0.15-0.36,0.29-0.36,0.44v1.11
		c0,0.13,0,0.31,0,0.56c0,0.25,0,0.44,0,0.56c0,0.07-0.03,0.11-0.09,0.11h-0.7c-0.05,0-0.08-0.03-0.08-0.1c0-0.2,0-0.51,0-0.92
		c0-0.41,0-0.72,0-0.92c0-0.46-0.05-0.92-0.15-1.38c-0.01-0.03-0.01-0.06-0.01-0.08c0-0.03,0.01-0.05,0.03-0.06
		c0.09-0.01,0.23-0.03,0.41-0.06c0.08-0.03,0.21-0.05,0.38-0.08l0.03,0c0.03,0,0.06,0.09,0.08,0.27s0.05,0.27,0.07,0.27l0.19-0.17
		c0.15-0.13,0.3-0.23,0.45-0.31c0.21-0.11,0.43-0.17,0.64-0.17c0.58,0,0.95,0.24,1.11,0.71c0.16-0.2,0.35-0.37,0.58-0.5
		c0.25-0.14,0.49-0.21,0.73-0.21c0.47,0,0.79,0.14,0.97,0.41c0.13,0.2,0.19,0.52,0.19,0.96c0,0.08,0,0.21-0.01,0.39
		s-0.01,0.3-0.01,0.39c0,0.16,0,0.4,0.01,0.72S115.81,40.48,115.81,40.64z"/>
	<path style="fill:#81655A;" d="M123.1,40.64c0,0.1-0.03,0.15-0.09,0.15c-0.04,0-0.09,0-0.17-0.01s-0.14-0.01-0.18-0.01
		c-0.04,0-0.11,0-0.19,0.01s-0.15,0.01-0.19,0.01c-0.05,0-0.08-0.06-0.08-0.18c0-0.12,0-0.29,0.01-0.52
		c0.01-0.23,0.01-0.4,0.01-0.52c0-0.64,0-0.99-0.01-1.07c-0.02-0.26-0.07-0.44-0.16-0.54c-0.1-0.11-0.27-0.16-0.53-0.16
		c-0.16,0-0.34,0.08-0.54,0.23c-0.21,0.16-0.31,0.32-0.32,0.47c-0.01,0.2-0.02,0.56-0.02,1.08c0,0.12,0,0.31,0.02,0.56
		c0.01,0.25,0.01,0.43,0.01,0.56c0,0.07-0.02,0.1-0.07,0.1c-0.04,0-0.11,0-0.2-0.01s-0.15-0.01-0.2-0.01c-0.04,0-0.1,0-0.18,0.01
		s-0.14,0.01-0.18,0.01c-0.05,0-0.08-0.04-0.08-0.11c0-0.12,0-0.3,0.01-0.55c0.01-0.24,0.01-0.43,0.01-0.55v-0.91
		c0-0.29-0.03-0.49-0.1-0.61c-0.1-0.17-0.28-0.26-0.55-0.26c-0.16,0-0.35,0.07-0.57,0.2c-0.24,0.15-0.36,0.29-0.36,0.44v1.11
		c0,0.13,0,0.31,0,0.56c0,0.25,0,0.44,0,0.56c0,0.07-0.03,0.11-0.09,0.11h-0.7c-0.05,0-0.08-0.03-0.08-0.1c0-0.2,0-0.51,0-0.92
		c0-0.41,0-0.72,0-0.92c0-0.46-0.05-0.92-0.15-1.38c-0.01-0.03-0.01-0.06-0.01-0.08c0-0.03,0.01-0.05,0.03-0.06
		c0.09-0.01,0.23-0.03,0.41-0.06c0.08-0.03,0.21-0.05,0.38-0.08l0.03,0c0.03,0,0.06,0.09,0.08,0.27s0.05,0.27,0.07,0.27l0.19-0.17
		c0.15-0.13,0.3-0.23,0.45-0.31c0.21-0.11,0.43-0.17,0.64-0.17c0.58,0,0.95,0.24,1.11,0.71c0.16-0.2,0.35-0.37,0.58-0.5
		c0.25-0.14,0.49-0.21,0.73-0.21c0.47,0,0.79,0.14,0.97,0.41c0.13,0.2,0.19,0.52,0.19,0.96c0,0.08,0,0.21-0.01,0.39
		s-0.01,0.3-0.01,0.39c0,0.16,0,0.4,0.01,0.72S123.1,40.48,123.1,40.64z"/>
	<path style="fill:#81655A;" d="M127.84,38.75c0,0.19-0.08,0.31-0.24,0.38c-0.11,0.04-0.89,0.12-2.34,0.22
		c0.03,0.22,0.16,0.41,0.37,0.57c0.2,0.15,0.42,0.22,0.65,0.22c0.4,0,0.76-0.13,1.1-0.39c0.04-0.03,0.08-0.07,0.12-0.1
		c0.02,0,0.03,0,0.04,0.01c0.01,0,0.05,0.09,0.14,0.26c0.09,0.17,0.13,0.26,0.13,0.27c0,0.02-0.02,0.04-0.06,0.09
		c-0.37,0.39-0.85,0.59-1.43,0.59c-0.59,0-1.05-0.17-1.4-0.52c-0.35-0.35-0.52-0.82-0.52-1.4c0-0.52,0.17-0.97,0.5-1.36
		c0.35-0.4,0.78-0.6,1.29-0.6c0.47,0,0.87,0.17,1.19,0.52C127.69,37.85,127.84,38.26,127.84,38.75z M126.94,38.52
		c0-0.21-0.08-0.4-0.25-0.56c-0.17-0.16-0.35-0.24-0.56-0.24c-0.23,0-0.44,0.09-0.62,0.28s-0.27,0.4-0.27,0.63
		c0,0.05,0.04,0.08,0.14,0.08c0.37,0,0.82-0.04,1.34-0.11C126.87,38.57,126.94,38.55,126.94,38.52z"/>
	<path style="fill:#81655A;" d="M132.79,35.5c0,0.33-0.01,0.81-0.04,1.46c-0.03,0.65-0.04,1.14-0.04,1.46c0,1,0.02,1.75,0.06,2.26
		l0,0.05c0,0.03-0.03,0.04-0.1,0.05c-0.05,0-0.12,0-0.2,0c-0.11-0.01-0.16-0.01-0.15-0.01c-0.04,0-0.09,0-0.17,0.01
		s-0.13,0.01-0.17,0.01c-0.04,0-0.06-0.09-0.06-0.26c-0.01-0.17-0.02-0.26-0.03-0.27c-0.01,0.01-0.03,0.02-0.06,0.05
		c-0.35,0.37-0.74,0.56-1.19,0.56c-0.51,0-0.93-0.19-1.26-0.58c-0.31-0.37-0.47-0.81-0.47-1.33c0-0.54,0.16-0.99,0.47-1.36
		c0.33-0.38,0.76-0.58,1.28-0.58c0.32,0,0.6,0.09,0.83,0.28c0.11,0.09,0.22,0.19,0.32,0.28c0.02-0.01,0.03-0.03,0.03-0.05v-1.23
		c0-0.08,0-0.21-0.01-0.38c-0.01-0.17-0.01-0.3-0.01-0.38c0-0.06,0.02-0.09,0.06-0.09c0.09,0,0.23-0.01,0.42-0.02
		c0.18-0.02,0.32-0.02,0.41-0.02C132.77,35.42,132.79,35.45,132.79,35.5z M131.85,38.95c0-0.3-0.09-0.57-0.28-0.8
		c-0.2-0.25-0.45-0.37-0.74-0.37c-0.31,0-0.57,0.12-0.77,0.36c-0.19,0.23-0.29,0.5-0.29,0.82c0,0.3,0.1,0.57,0.3,0.79
		c0.2,0.24,0.46,0.36,0.76,0.36c0.3,0,0.55-0.12,0.75-0.36C131.75,39.52,131.85,39.26,131.85,38.95z"/>
	<path style="fill:#81655A;" d="M138.34,39.15c0,0.44-0.13,0.82-0.4,1.13c-0.28,0.33-0.64,0.5-1.07,0.5c-0.16,0-0.4,0-0.73-0.01
		c-0.33-0.01-0.57-0.01-0.73-0.01c-0.12,0-0.3,0-0.54,0.01c-0.24,0.01-0.42,0.02-0.54,0.02c-0.06,0-0.09-0.03-0.09-0.09
		c0-0.28,0.01-0.69,0.04-1.25s0.04-0.97,0.04-1.25c0-0.29-0.01-0.73-0.04-1.32c-0.03-0.59-0.04-1.03-0.04-1.32
		c0-0.06,0.03-0.08,0.09-0.08c0.22,0,0.56,0,1.01,0c0.45,0,0.79,0,1.02,0c0.53,0,0.95,0.1,1.27,0.29c0.38,0.24,0.58,0.61,0.58,1.12
		c0,0.17-0.05,0.36-0.15,0.54c-0.1,0.19-0.22,0.33-0.37,0.43c-0.07,0.05-0.11,0.08-0.11,0.09c0,0.02,0.04,0.04,0.11,0.08
		c0.19,0.11,0.35,0.26,0.46,0.47C138.28,38.71,138.34,38.92,138.34,39.15z M137.27,36.97c0-0.36-0.16-0.6-0.48-0.72
		c-0.19-0.07-0.51-0.11-0.94-0.11c-0.42,0-0.64,0.03-0.64,0.09c0,0.08,0,0.21-0.01,0.38s-0.01,0.29-0.01,0.38c0,0.06,0,0.15,0,0.27
		c0,0.12,0,0.21,0,0.27c0,0.07,0.29,0.11,0.86,0.11C136.87,37.64,137.27,37.42,137.27,36.97z M137.38,39.11
		c0-0.31-0.14-0.52-0.41-0.63c-0.17-0.07-0.45-0.11-0.81-0.11c-0.64,0-0.95,0.03-0.95,0.1v0.62c0,0.09,0,0.23,0.01,0.42
		c0,0.19,0.01,0.33,0.01,0.42c0,0.02,0.08,0.04,0.24,0.06s0.4,0.02,0.72,0.02c0.4,0,0.68-0.05,0.86-0.16
		C137.26,39.72,137.38,39.47,137.38,39.11z"/>
	<path style="fill:#81655A;" d="M140.72,35.53l0,0.05c-0.06,0.94-0.08,1.75-0.08,2.42c0,0.3,0.01,0.75,0.02,1.35
		s0.02,1.05,0.02,1.35c0,0.06-0.02,0.09-0.06,0.09h-0.72c-0.04,0-0.07-0.03-0.07-0.09c0-0.3,0-0.75,0.01-1.35s0.01-1.05,0.01-1.35
		c0-0.27-0.01-0.68-0.04-1.23c-0.03-0.55-0.04-0.96-0.04-1.22c0-0.05,0.03-0.08,0.08-0.08c0.05,0,0.11,0,0.2,0.01
		s0.16,0.01,0.2,0.01c0.05,0,0.12,0,0.21-0.01c0.09-0.01,0.16-0.01,0.21-0.01C140.7,35.47,140.72,35.49,140.72,35.53z"/>
	<path style="fill:#81655A;" d="M145.67,38.94c0,0.53-0.17,0.98-0.52,1.35c-0.35,0.39-0.79,0.58-1.31,0.58
		c-0.52,0-0.96-0.19-1.32-0.58c-0.35-0.37-0.52-0.82-0.52-1.35s0.17-0.98,0.52-1.35c0.36-0.38,0.79-0.57,1.32-0.57
		c0.52,0,0.96,0.19,1.31,0.57C145.5,37.97,145.67,38.41,145.67,38.94z M144.87,38.95c0-0.31-0.09-0.57-0.28-0.79
		c-0.2-0.23-0.45-0.34-0.75-0.34s-0.55,0.11-0.75,0.34c-0.19,0.22-0.28,0.48-0.28,0.79c0,0.3,0.1,0.57,0.29,0.79
		c0.2,0.24,0.45,0.35,0.75,0.35c0.3,0,0.55-0.12,0.75-0.35C144.78,39.51,144.87,39.25,144.87,38.95z"/>
	<path style="fill:#81655A;" d="M150.32,37.25c0,0.3,0,0.76-0.01,1.37c0,0.61-0.01,1.06-0.01,1.36c0,0.6-0.13,1.04-0.39,1.33
		c-0.27,0.3-0.7,0.45-1.29,0.45c-0.57,0-1.04-0.11-1.39-0.33c-0.06-0.04-0.08-0.07-0.08-0.09c0,0.03,0.04-0.16,0.11-0.56
		c0.01-0.04,0.03-0.06,0.05-0.06c0.01,0,0.03,0.01,0.05,0.02c0.38,0.22,0.76,0.33,1.14,0.33c0.25,0,0.46-0.06,0.62-0.17
		c0.19-0.13,0.28-0.31,0.28-0.55c0-0.05,0-0.17-0.01-0.36c-0.28,0.34-0.64,0.51-1.07,0.51c-0.47,0-0.85-0.17-1.15-0.5
		c-0.29-0.32-0.43-0.72-0.43-1.19c0-0.48,0.14-0.89,0.42-1.22c0.29-0.36,0.68-0.54,1.15-0.54c0.42,0,0.75,0.16,0.99,0.48
		c0.04,0.05,0.07,0.08,0.09,0.08c0.02,0,0.03-0.02,0.03-0.07c0-0.03,0-0.09-0.01-0.16c0-0.07-0.01-0.13-0.01-0.16
		c0-0.15,0.02-0.23,0.05-0.23c0.03,0,0.16,0.02,0.41,0.07c0.25,0.05,0.38,0.08,0.4,0.08C150.3,37.17,150.32,37.2,150.32,37.25z
		 M149.41,38.81c0-0.28-0.08-0.52-0.23-0.72c-0.17-0.21-0.39-0.32-0.67-0.32c-0.27,0-0.49,0.11-0.66,0.33
		c-0.15,0.2-0.23,0.43-0.23,0.71c0,0.28,0.08,0.51,0.23,0.71c0.17,0.22,0.39,0.33,0.66,0.33c0.27,0,0.49-0.11,0.66-0.33
		C149.33,39.33,149.41,39.09,149.41,38.81z"/>
	<path style="fill:#81655A;" d="M152.81,40.22c0,0.17-0.06,0.31-0.17,0.44s-0.25,0.19-0.41,0.19s-0.3-0.06-0.41-0.19
		c-0.11-0.12-0.16-0.26-0.16-0.43c0-0.17,0.05-0.31,0.16-0.43c0.11-0.12,0.25-0.18,0.41-0.18c0.17,0,0.31,0.06,0.42,0.18
		C152.76,39.91,152.81,40.06,152.81,40.22z"/>
	<path style="fill:#81655A;" d="M156.88,37.35c0,0.06-0.03,0.18-0.09,0.37s-0.1,0.29-0.12,0.29c-0.11-0.05-0.23-0.1-0.34-0.15
		c-0.11-0.05-0.24-0.08-0.38-0.08c-0.31,0-0.57,0.12-0.78,0.34s-0.31,0.5-0.31,0.81c0,0.31,0.1,0.57,0.31,0.8
		c0.21,0.23,0.47,0.35,0.78,0.35c0.17,0,0.34-0.04,0.5-0.13s0.24-0.13,0.22-0.13c0.03,0,0.07,0.11,0.11,0.32
		c0.04,0.19,0.06,0.32,0.06,0.4c0,0.08-0.15,0.15-0.44,0.23c-0.25,0.06-0.43,0.09-0.55,0.09c-0.52,0-0.96-0.19-1.32-0.58
		c-0.35-0.38-0.53-0.83-0.53-1.36c0-0.54,0.17-0.99,0.51-1.36c0.35-0.38,0.79-0.58,1.32-0.58c0.35,0,0.68,0.09,0.97,0.27
		C156.85,37.3,156.88,37.33,156.88,37.35z"/>
	<path style="fill:#81655A;" d="M161.56,38.94c0,0.53-0.17,0.98-0.52,1.35c-0.35,0.39-0.79,0.58-1.31,0.58
		c-0.52,0-0.96-0.19-1.32-0.58c-0.35-0.37-0.52-0.82-0.52-1.35s0.17-0.98,0.52-1.35c0.36-0.38,0.79-0.57,1.32-0.57
		c0.52,0,0.96,0.19,1.31,0.57C161.39,37.97,161.56,38.41,161.56,38.94z M160.77,38.95c0-0.31-0.09-0.57-0.28-0.79
		c-0.2-0.23-0.45-0.34-0.75-0.34s-0.55,0.11-0.75,0.34c-0.19,0.22-0.28,0.48-0.28,0.79c0,0.3,0.1,0.57,0.29,0.79
		c0.2,0.24,0.45,0.35,0.75,0.35c0.3,0,0.55-0.12,0.75-0.35C160.67,39.51,160.77,39.25,160.77,38.95z"/>
	<path style="fill:#81655A;" d="M168.63,40.64c0,0.1-0.03,0.15-0.09,0.15c-0.04,0-0.09,0-0.17-0.01s-0.14-0.01-0.18-0.01
		c-0.04,0-0.11,0-0.19,0.01s-0.15,0.01-0.19,0.01c-0.05,0-0.08-0.06-0.08-0.18c0-0.12,0-0.29,0.01-0.52
		c0.01-0.23,0.01-0.4,0.01-0.52c0-0.64,0-0.99-0.01-1.07c-0.02-0.26-0.07-0.44-0.16-0.54c-0.1-0.11-0.27-0.16-0.53-0.16
		c-0.16,0-0.34,0.08-0.54,0.23c-0.21,0.16-0.31,0.32-0.32,0.47c-0.01,0.2-0.02,0.56-0.02,1.08c0,0.12,0,0.31,0.02,0.56
		c0.01,0.25,0.01,0.43,0.01,0.56c0,0.07-0.02,0.1-0.07,0.1c-0.05,0-0.11,0-0.2-0.01s-0.15-0.01-0.2-0.01c-0.04,0-0.1,0-0.18,0.01
		s-0.14,0.01-0.18,0.01c-0.05,0-0.08-0.04-0.08-0.11c0-0.12,0-0.3,0.01-0.55c0.01-0.24,0.01-0.43,0.01-0.55v-0.91
		c0-0.29-0.03-0.49-0.1-0.61c-0.1-0.17-0.28-0.26-0.55-0.26c-0.16,0-0.35,0.07-0.57,0.2c-0.24,0.15-0.36,0.29-0.36,0.44v1.11
		c0,0.13,0,0.31,0,0.56c0,0.25,0,0.44,0,0.56c0,0.07-0.03,0.11-0.09,0.11h-0.7c-0.05,0-0.08-0.03-0.08-0.1c0-0.2,0-0.51,0-0.92
		c0-0.41,0-0.72,0-0.92c0-0.46-0.05-0.92-0.15-1.38c-0.01-0.03-0.01-0.06-0.01-0.08c0-0.03,0.01-0.05,0.03-0.06
		c0.09-0.01,0.23-0.03,0.41-0.06c0.08-0.03,0.21-0.05,0.38-0.08l0.03,0c0.03,0,0.06,0.09,0.08,0.27s0.05,0.27,0.07,0.27l0.19-0.17
		c0.15-0.13,0.3-0.23,0.45-0.31c0.21-0.11,0.43-0.17,0.64-0.17c0.58,0,0.95,0.24,1.11,0.71c0.16-0.2,0.35-0.37,0.58-0.5
		c0.25-0.14,0.49-0.21,0.73-0.21c0.47,0,0.79,0.14,0.97,0.41c0.13,0.2,0.19,0.52,0.19,0.96c0,0.08,0,0.21-0.01,0.39
		s-0.01,0.3-0.01,0.39c0,0.16,0,0.4,0.01,0.72S168.63,40.48,168.63,40.64z"/>
</g>
</svg>
